{"accessors":[{"bufferView":0,"byteOffset":0,"componentType":5126,"count":204,"max":[0.450230002403259,1.01947999000549,0.344260007143021],"min":[-0.450230002403259,-1.01949000358582,-0.259454995393753],"normalized":false,"type":"VEC3"},{"bufferView":1,"byteOffset":0,"componentType":5126,"count":204,"max":[1.0,1.0,0.725279450416565,1.0],"min":[-0.000114329159259796,-0.0000158211751113413,-0.725279450416565,-1.0],"normalized":false,"type":"VEC4"},{"bufferView":2,"byteOffset":0,"componentType":5126,"count":204,"max":[1.0,1.0,1.0],"min":[-1.0,-1.0,-1.0],"normalized":false,"type":"VEC3"},{"bufferView":3,"byteOffset":0,"componentType":5126,"count":204,"max":[0.971267282962799,0.99365222454071],"min":[0.00202944991178811,0.00633249431848526],"normalized":false,"type":"VEC2"},{"bufferView":4,"byteOffset":0,"componentType":5123,"count":330,"max":[203.0],"min":[0.0],"normalized":false,"type":"SCALAR"}],"asset":{"generator":"Godot Engine v4.4.stable.mono.official@4c311cbee68c0b66ff8ebb8b0defdd9979dd2a41","version":"2.0"},"bufferViews":[{"buffer":0,"byteLength":2448,"byteOffset":0,"byteStride":12,"target":34962},{"buffer":0,"byteLength":3264,"byteOffset":2448,"byteStride":16,"target":34962},{"buffer":0,"byteLength":2448,"byteOffset":5712,"byteStride":12,"target":34962},{"buffer":0,"byteLength":1632,"byteOffset":8160,"byteStride":8,"target":34962},{"buffer":0,"byteLength":660,"byteOffset":9792,"target":34963}],"buffers":[{"byteLength":10452,"uri":"stone_sarcophagus0.bin"}],"extensionsUsed":["GODOT_single_root"],"images":[{"uri":"textures%2FStone_08_albedo.png"}],"materials":[{"doubleSided":true,"extensions":{},"name":"Stone_08","pbrMetallicRoughness":{"baseColorFactor":[1.0,1.0,1.0,1.0],"baseColorTexture":{"index":0},"metallicFactor":0.0,"roughnessFactor":1.0}}],"meshes":[{"extras":{"targetNames":[]},"primitives":[{"attributes":{"NORMAL":2,"POSITION":0,"TANGENT":1,"TEXCOORD_0":3},"indices":4,"material":0,"mode":4}]}],"nodes":[{"mesh":0,"name":"stone_sarcophagus","rotation":[-0.70710676908493,0.0,0.0,0.70710676908493]}],"samplers":[{"magFilter":9729,"minFilter":9987,"wrapS":10497,"wrapT":10497}],"scene":0,"scenes":[{"nodes":[0]}],"textures":[{"sampler":0,"source":0}]}