# Blender 4.2.3 LTS
# www.blender.org
mtllib brick_surfaced.mtl
o face_sides
v 0.130000 0.170000 -0.400000
v 0.160000 0.170000 -0.370000
v 0.130000 -0.170000 -0.400000
v 0.160000 -0.170000 -0.370000
v 0.160000 0.170000 0.370000
v 0.130000 0.170000 0.400000
v 0.160000 -0.170000 0.370000
v 0.130000 -0.170000 0.400000
v -0.130000 0.170000 -0.400000
v -0.160000 0.170000 -0.370000
v -0.160000 -0.170000 -0.370000
v -0.130000 -0.170000 -0.400000
v -0.160000 0.170000 0.370000
v -0.130000 0.170000 0.400000
v -0.130000 -0.170000 0.400000
v -0.160000 -0.170000 0.370000
vn -1.0000 -0.0000 -0.0000
vn -0.0000 -0.0000 1.0000
vn 1.0000 -0.0000 -0.0000
vn -0.0000 -0.0000 -1.0000
vt 0.393750 0.009375
vt 0.606250 0.009375
vt 0.606250 0.240625
vt 0.393750 0.240625
vt 0.393750 0.773438
vt 0.606250 0.773438
vt 0.606250 0.976563
vt 0.393750 0.976562
vt 0.393750 0.509375
vt 0.606250 0.509375
vt 0.606250 0.740625
vt 0.393750 0.740625
vt 0.393750 0.273438
vt 0.606250 0.273438
vt 0.606250 0.476563
vt 0.393750 0.476562
s 0
usemtl Material
f 16/1/1 13/2/1 10/3/1 11/4/1
f 8/5/2 6/6/2 14/7/2 15/8/2
f 4/9/3 2/10/3 5/11/3 7/12/3
f 12/13/4 9/14/4 1/15/4 3/16/4
o gutters_bottom
v 0.130000 -0.200000 -0.370000
v 0.130000 -0.170000 -0.400000
v 0.160000 -0.170000 -0.370000
v 0.160000 -0.170000 0.370000
v 0.130000 -0.170000 0.400000
v 0.130000 -0.200000 0.370000
v -0.160000 -0.170000 -0.370000
v -0.130000 -0.170000 -0.400000
v -0.130000 -0.200000 -0.370000
v -0.130000 -0.200000 0.370000
v -0.130000 -0.170000 0.400000
v -0.160000 -0.170000 0.370000
vn 0.5774 -0.5773 -0.5774
vn 0.5774 -0.5773 0.5774
vn -0.5774 -0.5773 -0.5774
vn -0.5774 -0.5773 0.5774
vn -0.7071 -0.7071 -0.0000
vn -0.0000 -0.7071 -0.7071
vn -0.0000 -0.7071 0.7071
vn 0.7071 -0.7071 -0.0000
vt 0.351562 0.509375
vt 0.351562 0.500000
vt 0.375000 0.509375
vt 0.375000 0.740625
vt 0.351562 0.750000
vt 0.351562 0.740625
vt 0.125000 0.509375
vt 0.148438 0.500000
vt 0.148438 0.509375
vt 0.148438 0.740625
vt 0.148438 0.750000
vt 0.125000 0.740625
vt 0.393750 0.509375
vt 0.393750 0.740625
s 0
usemtl Material
f 17/17/5 18/18/5 19/19/5
f 20/20/6 21/21/6 22/22/6
f 23/23/7 24/24/7 25/25/7
f 26/26/8 27/27/8 28/28/8
f 25/25/9 26/26/9 28/28/9 23/23/9
f 17/17/10 25/25/10 24/24/10 18/18/10
f 26/26/11 22/22/11 21/21/11 27/27/11
f 22/22/12 17/17/12 19/29/12 20/30/12
o Gutters_right
v 0.130000 0.170000 -0.400000
v 0.160000 0.170000 -0.370000
v 0.130000 -0.170000 -0.400000
v 0.160000 -0.170000 -0.370000
v -0.130000 0.170000 -0.400000
v -0.160000 0.170000 -0.370000
v -0.160000 -0.170000 -0.370000
v -0.130000 -0.170000 -0.400000
vn 0.7071 -0.0000 -0.7071
vn -0.7071 -0.0000 -0.7071
vt 0.606250 0.509375
vt 0.393750 0.509375
vt 0.393750 0.476562
vt 0.606250 0.476563
vt 0.606250 0.273438
vt 0.393750 0.273438
vt 0.393750 0.240625
vt 0.606250 0.240625
s 0
usemtl Material
f 30/31/13 32/32/13 31/33/13 29/34/13
f 33/35/14 36/36/14 35/37/14 34/38/14
o Gutters_left
v 0.160000 0.170000 0.370000
v 0.130000 0.170000 0.400000
v 0.160000 -0.170000 0.370000
v 0.130000 -0.170000 0.400000
v -0.160000 0.170000 0.370000
v -0.130000 0.170000 0.400000
v -0.130000 -0.170000 0.400000
v -0.160000 -0.170000 0.370000
vn -0.7071 -0.0000 0.7071
vn 0.7071 -0.0000 0.7071
vt 0.393750 0.000000
vt 0.606250 0.000000
vt 0.606250 0.009375
vt 0.393750 0.009375
vt 0.606250 0.773438
vt 0.393750 0.773438
vt 0.393750 0.740625
vt 0.606250 0.740625
s 0
usemtl Material
f 43/39/15 42/40/15 41/41/15 44/42/15
f 38/43/16 40/44/16 39/45/16 37/46/16
o gutters_top
v 0.130000 0.170000 -0.400000
v 0.130000 0.200000 -0.370000
v 0.160000 0.170000 -0.370000
v 0.160000 0.170000 0.370000
v 0.130000 0.200000 0.370000
v 0.130000 0.170000 0.400000
v -0.130000 0.170000 -0.400000
v -0.160000 0.170000 -0.370000
v -0.130000 0.200000 -0.370000
v -0.160000 0.170000 0.370000
v -0.130000 0.170000 0.400000
v -0.130000 0.200000 0.370000
vn 0.5774 0.5773 -0.5774
vn 0.5774 0.5773 0.5774
vn -0.5774 0.5773 -0.5774
vn -0.5774 0.5773 0.5774
vn -0.0000 0.7071 0.7071
vn 0.7071 0.7071 -0.0000
vn -0.7071 0.7071 -0.0000
vn -0.0000 0.7071 -0.7071
vt 0.606250 0.476563
vt 0.625000 0.476562
vt 0.606250 0.500000
vt 0.606250 0.750000
vt 0.625000 0.773438
vt 0.606250 0.773438
vt 0.606250 0.250000
vt 0.606250 0.240625
vt 0.625000 0.240625
vt 0.606250 0.009375
vt 0.606250 0.000000
vt 0.625000 0.009375
vt 0.625000 0.976562
vt 0.606250 0.976563
vt 0.648438 0.509375
vt 0.648438 0.740625
vt 0.606250 0.740625
vt 0.606250 0.509375
vt 0.625000 0.273438
vt 0.606250 0.273438
s 0
usemtl Material
f 45/47/17 46/48/17 47/49/17
f 48/50/18 49/51/18 50/52/18
f 51/53/19 52/54/19 53/55/19
f 54/56/20 55/57/20 56/58/20
f 49/51/21 56/59/21 55/60/21 50/52/21
f 46/61/22 49/62/22 48/63/22 47/64/22
f 56/58/23 53/55/23 52/54/23 54/56/23
f 53/65/24 46/48/24 45/47/24 51/66/24
o face_bottom
v 0.130000 -0.200000 -0.370000
v 0.130000 -0.200000 0.370000
v -0.130000 -0.200000 -0.370000
v -0.130000 -0.200000 0.370000
vn -0.0000 -1.0000 -0.0000
vt 0.148438 0.509375
vt 0.351562 0.509375
vt 0.351562 0.740625
vt 0.148438 0.740625
s 0
usemtl Material
f 59/67/25 57/68/25 58/69/25 60/70/25
o face_top
v 0.130000 0.200000 -0.370000
v 0.130000 0.200000 0.370000
v -0.130000 0.200000 -0.370000
v -0.130000 0.200000 0.370000
vn -0.0000 1.0000 -0.0000
vt 0.648438 0.509375
vt 0.851563 0.509375
vt 0.851562 0.740625
vt 0.648438 0.740625
s 0
usemtl Material
f 61/71/26 63/72/26 64/73/26 62/74/26
